<svg xmlns="http://www.w3.org/2000/svg" viewBox="0 0 100 100">
  <rect width="100" height="100" rx="20" fill="#6366F1"/>
  <rect x="20" y="25" width="60" height="60" rx="4" fill="white" opacity="0.95"/>
  <polygon points="50,5 20,25 80,25" fill="white" opacity="0.9"/>
  <polygon points="50,5 35,17 65,17" fill="#818CF8"/>
  <rect x="30" y="35" width="10" height="12" rx="2" fill="#818CF8"/>
  <rect x="45" y="35" width="10" height="12" rx="2" fill="#818CF8"/>
  <rect x="60" y="35" width="10" height="12" rx="2" fill="#818CF8"/>
  <rect x="30" y="55" width="10" height="12" rx="2" fill="#818CF8"/>
  <rect x="45" y="55" width="10" height="12" rx="2" fill="#818CF8"/>
  <rect x="60" y="55" width="10" height="12" rx="2" fill="#818CF8"/>
  <rect x="30" y="75" width="10" height="12" rx="2" fill="#818CF8"/>
  <rect x="45" y="75" width="10" height="12" rx="2" fill="#818CF8"/>
  <rect x="60" y="75" width="10" height="12" rx="2" fill="#818CF8"/>
  <rect x="40" y="87" width="20" height="6" rx="2" fill="#6366F1"/>
</svg>
